:SAMPLES-PER-SECOND 30
:FULLY-SPECIFIED
:DEGREES
364
root  31.7616 37.6802 10.7126 177.323 40.1285 -174.08
RightUpLeg  -6.04186 -27.019 1.60017
RightLeg  37.828 -1.1085 -1.19965
RightFoot  -20.9806 -0.345979 -2.43297
RightToes  0.000482159 0.542163 -0.142577
Spine  34.1672 -3.73834 18.2863
Spine1  7.8137 3.48346 -7.33619
HEad  -36.9689 55.3194 -52.5287
LeftShoulder1  10.0989 -15.179 -47.1736
LeftArm  -16.7902 11.6514 -25.2802
LeftForeArm  50.8377 -77.9666 -61.178
LeftHand  -0.25398 0.0180481 5.50724
RightShoulder  4.70871 9.42406 30.4672
RightArm  -11.4337 -17.9087 23.5709
RightForeArm  26.8349 77.6766 88.6872
RightHand  1.00324 -15.6409 -12.127
LeftUpLeg  -20.9483 20.855 -7.33301
LeftLeg  10.0285 -15.2954 -7.19583
LeftFoot  9.34712 4.60724 -25.1394
LeftToes  1.06245e-005 4.65856e-005 -8.18503e-006
365
root  31.0828 38.1746 10.857 176.222 34.4313 -175.164
RightUpLeg  -4.44869 -30.2333 -0.135371
RightLeg  33.8906 -2.75018 -2.24655
RightFoot  -18.7387 -0.264495 -2.10629
RightToes  0.000482159 0.542163 -0.142577
Spine  32.7318 -3.27289 18.1197
Spine1  7.27117 3.58531 -7.1269
HEad  -34.3577 54.9897 -50.0828
LeftShoulder1  10.1791 -15.2321 -47.4184
LeftArm  -15.8854 11.8358 -25.1004
LeftForeArm  46.9276 -77.489 -57.368
LeftHand  -0.25398 0.0180481 5.50724
RightShoulder  4.6783 9.25031 30.728
RightArm  -11.8885 -19.0377 23.9855
RightForeArm  23.9851 77.647 86.1579
RightHand  1.05408 -15.8185 -12.4732
LeftUpLeg  -21.804 26.8197 -10.0986
LeftLeg  15.9733 -18.8213 -5.67942
LeftFoot  3.93353 2.57967 -19.4197
LeftToes  1.06245e-005 4.65856e-005 -8.18503e-006
366
root  30.4081 38.7163 10.8569 175.347 29.1078 -176.247
RightUpLeg  -2.36294 -32.6011 -2.30251
RightLeg  29.6512 -4.61002 -3.1237
RightFoot  -15.7005 -0.14372 -0.936803
RightToes  0.000482159 0.542163 -0.142577
Spine  31.2341 -2.88097 17.6893
Spine1  6.78773 3.66594 -7.38227
HEad  -31.2344 54.3329 -47.1443
LeftShoulder1  10.1408 -15.1966 -47.3274
LeftArm  -15.5935 12.3826 -25.1262
LeftForeArm  44.0858 -77.0786 -54.5569
LeftHand  -0.25398 0.0180481 5.50724
RightShoulder  4.67639 9.19812 30.8654
RightArm  -12.0245 -19.9592 24.6355
RightForeArm  21.1082 77.5905 83.0468
RightHand  1.09345 -16.399 -12.2575
LeftUpLeg  -20.53 25.513 -8.02941
LeftLeg  19.4297 -14.7419 -5.35755
LeftFoot  1.00428 1.88134 -17.3881
LeftToes  1.06245e-005 4.65856e-005 -8.18503e-006
367
root  29.7219 39.2265 10.7044 174.993 24.1343 -177.226
RightUpLeg  -0.00549047 -34.9028 -4.95566
RightLeg  25.3162 -6.42539 -3.37286
RightFoot  -12.6285 -0.0796034 0.362121
RightToes  0.000482159 0.542163 -0.142577
Spine  29.3287 -2.4103 17.1076
Spine1  6.29156 3.75028 -7.73966
HEad  -27.7826 53.5997 -43.7224
LeftShoulder1  10.0273 -15.0585 -47.1423
LeftArm  -15.6327 13.4508 -25.0909
LeftForeArm  43.5916 -76.9857 -53.9317
LeftHand  -0.25398 0.0180481 5.50724
RightShoulder  4.70963 9.26987 30.9194
RightArm  -11.557 -20.965 25.0336
RightForeArm  19.2001 77.5333 81.0378
RightHand  1.12828 -17.0022 -11.9889
LeftUpLeg  -19.4031 24.196 -5.52444
LeftLeg  21.8808 -12.0986 -4.9878
LeftFoot  -0.403248 1.51648 -15.7238
LeftToes  1.06245e-005 4.65856e-005 -8.18503e-006
368
root  29.0016 39.6345 10.4239 175.639 19.6933 -178.314
RightUpLeg  1.45965 -33.3327 -7.46024
RightLeg  21.3025 -11.5303 -2.56878
RightFoot  -10.0736 -0.0817964 1.23573
RightToes  0.000482159 0.542163 -0.142577
Spine  26.3728 -1.49517 16.1828
Spine1  5.86273 4.01594 -7.95014
HEad  -24.0097 52.7079 -39.6956
LeftShoulder1  9.86945 -14.8666 -46.8792
LeftArm  -15.6967 14.8358 -24.902
LeftForeArm  44.6066 -77.1306 -54.8026
LeftHand  -0.25398 0.0180481 5.50724
RightShoulder  4.74677 9.33377 31.0263
RightArm  -10.666 -22.0749 25.2543
RightForeArm  18.1196 77.5017 80.3328
RightHand  1.16767 -16.8663 -12.5117
LeftUpLeg  -18.9972 22.6832 -3.27744
LeftLeg  22.7313 -9.9156 -4.21617
LeftFoot  -1.24807 1.13908 -12.7791
LeftToes  1.06245e-005 4.65856e-005 -8.18503e-006
369
root  28.2132 39.9191 10.0366 177.528 15.9698 -179.7
RightUpLeg  0.934245 -24.4167 -9.21509
RightLeg  18.3338 -23.0992 -1.19354
RightFoot  -7.61065 -0.137036 2.57025
RightToes  0.000482159 0.542163 -0.142577
Spine  21.8878 -0.0881868 14.7157
Spine1  5.90881 4.53128 -8.11631
HEad  -20.5871 51.6498 -35.7949
LeftShoulder1  9.68119 -14.6291 -46.58
LeftArm  -15.9664 16.2784 -24.572
LeftForeArm  46.7336 -77.4385 -56.8953
LeftHand  -0.25398 0.0180481 5.50724
RightShoulder  4.78536 9.36549 31.2369
RightArm  -9.70734 -22.8641 25.65
RightForeArm  17.203 77.4727 79.6994
RightHand  1.18701 -16.068 -13.5764
LeftUpLeg  -19.4661 21.6926 -1.83347
LeftLeg  21.425 -7.20992 -2.7975
LeftFoot  -1.44075 0.855101 -9.77921
LeftToes  1.06245e-005 4.65856e-005 -8.18503e-006
370
root  27.3448 40.1006 9.55098 179.969 12.6587 178.887
RightUpLeg  -0.0993353 -19.1902 -11.244
RightLeg  15.9884 -31.3721 -0.381706
RightFoot  -5.07397 -0.277678 4.43507
RightToes  0.000482159 0.542163 -0.142577
Spine  16.6181 1.25061 12.8953
Spine1  6.52515 5.03595 -8.33977
HEad  -18.1054 50.693 -32.68
LeftShoulder1  9.5097 -14.3427 -46.4874
LeftArm  -16.7301 17.8224 -23.9799
LeftForeArm  50.562 -77.9301 -60.8256
LeftHand  -0.25398 0.0180481 5.50724
RightShoulder  4.85609 9.42278 31.6219
RightArm  -8.78359 -22.9131 26.1771
RightForeArm  16.2066 77.4241 78.3788
RightHand  1.19 -15.6327 -14.1453
LeftUpLeg  -20.1005 21.7542 -1.04095
LeftLeg  18.2972 -3.43131 -0.908389
LeftFoot  -1.12397 0.605424 -6.69712
LeftToes  1.06245e-005 4.65856e-005 -8.18503e-006
371
root  26.4031 40.1991 8.97814 -178.24 9.23923 177.947
RightUpLeg  0.416952 -16.9785 -13.454
RightLeg  13.1659 -37.1815 0.576663
RightFoot  -2.76478 -0.469209 6.02326
RightToes  0.000482159 0.542163 -0.142577
Spine  12.1929 1.9688 11.3357
Spine1  7.22198 5.2939 -8.69457
HEad  -16.097 49.8606 -29.945
LeftShoulder1  9.39705 -14.0504 -46.7069
LeftArm  -17.8261 19.4679 -23.1245
LeftForeArm  55.1389 -78.4118 -65.6419
LeftHand  -0.25398 0.0180481 5.50724
RightShoulder  4.95602 9.45917 32.2907
RightArm  -7.83287 -22.2762 26.4709
RightForeArm  15.2252 77.3602 76.7767
RightHand  1.22998 -16.1356 -13.9396
LeftUpLeg  -19.7029 22.0393 0.169436
LeftLeg  14.5507 2.96589 0.738347
LeftFoot  -1.34757 0.242187 -2.63693
LeftToes  1.06245e-005 4.65856e-005 -8.18503e-006
372
root  25.374 40.2189 8.33499 -177.464 5.42451 177.6
RightUpLeg  2.91385 -15.866 -15.167
RightLeg  8.90281 -41.223 2.17485
RightFoot  -0.409263 -0.684978 7.11363
RightToes  0.000482159 0.542163 -0.142577
Spine  9.06934 2.17467 10.3555
Spine1  7.69995 5.33769 -9.13703
HEad  -13.7617 48.7385 -27.0027
LeftShoulder1  9.30632 -13.7803 -46.9846
LeftArm  -18.7998 20.8303 -22.4044
LeftForeArm  57.3698 -78.6097 -68.181
LeftHand  -0.25398 0.0180481 5.50724
RightShoulder  5.04353 9.39462 33.1602
RightArm  -7.03583 -21.4439 26.4703
RightForeArm  14.1751 77.2916 75.3606
RightHand  1.30185 -16.9495 -13.6985
LeftUpLeg  -17.8257 20.4444 2.9396
LeftLeg  11.6469 14.5669 1.01128
LeftFoot  -2.25796 -0.074036 1.09097
LeftToes  1.06245e-005 4.65856e-005 -8.18503e-006
373
root  24.2316 40.1347 7.62441 -177.006 0.949188 177.328
RightUpLeg  6.25072 -15.204 -16.6321
RightLeg  4.34315 -45.0593 3.80196
RightFoot  2.44844 -1.04354 8.72021
RightToes  0.000482159 0.542163 -0.142577
Spine  6.18143 2.22698 9.29086
Spine1  8.31746 5.23162 -9.27856
HEad  -11.0113 46.9089 -23.7861
LeftShoulder1  9.17648 -13.5327 -47.002
LeftArm  -19.2795 21.5725 -22.2391
LeftForeArm  56.435 -78.5394 -67.4172
LeftHand  -0.25398 0.0180481 5.50724
RightShoulder  5.09291 9.29079 33.8584
RightArm  -6.84054 -21.1308 26.525
RightForeArm  13.4871 77.251 74.6364
RightHand  1.36824 -17.2324 -14.0128
LeftUpLeg  -16.5037 21.7439 4.20747
LeftLeg  11.0448 24.6993 0.877308
LeftFoot  -2.72426 -0.152047 2.23171
LeftToes  1.06245e-005 4.65856e-005 -8.18503e-006
374
root  22.9591 39.9202 6.84811 -176.414 -4.47691 176.632
RightUpLeg  9.65338 -15.083 -18.7963
RightLeg  1.64995 -50.5836 4.77561
RightFoot  4.90573 -1.4721 10.5568
RightToes  0.000482159 0.542163 -0.142577
Spine  3.11495 2.19361 7.42678
Spine1  9.11375 4.91158 -8.77956
HEad  -8.25251 44.0894 -20.3341
LeftShoulder1  9.04129 -13.3798 -46.7228
LeftArm  -18.9308 21.7867 -22.4719
LeftForeArm  55.4194 -78.4494 -66.265
LeftHand  -0.25398 0.0180481 5.50724
RightShoulder  5.10417 9.25993 34.0415
RightArm  -7.54591 -22.0737 26.862
RightForeArm  15.0665 77.3409 76.291
RightHand  1.40948 -17.0517 -14.6042
LeftUpLeg  -17.6709 30.111 1.04907
LeftLeg  13.4041 24.7523 2.15713
LeftFoot  -2.40017 -0.0638363 0.996309
LeftToes  1.06245e-005 4.65856e-005 -8.18503e-006
375
root  21.5622 39.5902 6.04086 -176.163 -10.6405 175.501
RightUpLeg  13.0408 -15.9424 -22.0859
RightLeg  2.83387 -53.9578 3.76409
RightFoot  4.7498 -1.44955 10.4655
RightToes  0.000482159 0.542163 -0.142577
Spine  1.16374 2.01162 5.17113
Spine1  9.4603 4.49905 -8.04024
HEad  -5.95475 40.0758 -16.9398
LeftShoulder1  8.98948 -13.4192 -46.3371
LeftArm  -17.4988 21.5187 -22.5197
LeftForeArm  56.0645 -78.4951 -66.6529
LeftHand  -0.25398 0.0180481 5.50724
RightShoulder  5.08416 9.27608 33.8362
RightArm  -8.95704 -24.4366 27.2191
RightForeArm  20.6994 77.5702 82.1398
RightHand  1.44352 -16.9143 -15.0922
LeftUpLeg  -20.698 41.1792 -5.62611
LeftLeg  17.2435 14.9157 4.22749
LeftFoot  -2.91108 0.00321921 0.20085
LeftToes  1.06245e-005 4.65856e-005 -8.18503e-006
376
root  20.0948 39.2266 5.28522 -176.651 -16.6796 174.138
RightUpLeg  15.5721 -17.1185 -25.5168
RightLeg  8.39164 -48.3796 -0.445708
RightFoot  0.55957 -0.800958 7.51038
RightToes  0.000482159 0.542163 -0.142577
Spine  1.22752 1.83956 3.47337
Spine1  9.26778 4.37267 -7.92746
HEad  -4.69824 35.2007 -14.6823
LeftShoulder1  9.02923 -13.5863 -46.0794
LeftArm  -15.3246 20.3727 -22.1264
LeftForeArm  56.0384 -78.4928 -66.622
LeftHand  -0.25398 0.0180481 5.50724
RightShoulder  5.06528 9.25548 33.7533
RightArm  -10.4951 -27.1958 27.1512
RightForeArm  28.5873 77.6762 90.5755
RightHand  1.47604 -16.7388 -15.6299
LeftUpLeg  -20.7857 41.984 -8.94096
LeftLeg  21.4263 9.62871 4.62285
LeftFoot  -5.63481 -0.0418865 1.6574
LeftToes  1.06245e-005 4.65856e-005 -8.18503e-006
377
root  18.6787 38.9083 4.65917 -177.383 -21.833 172.714
RightUpLeg  15.6336 -19.1861 -27.6015
RightLeg  15.1055 -31.7015 -4.70508
RightFoot  -6.60563 -0.170431 2.83927
RightToes  0.000482159 0.542163 -0.142577
Spine  2.30407 1.8122 2.35676
Spine1  9.42418 4.57403 -8.45023
HEad  -4.7149 30.5781 -14.4351
LeftShoulder1  9.11504 -13.7117 -46.1817
LeftArm  -13.3999 18.2006 -21.5612
LeftForeArm  52.9365 -78.2178 -63.7968
LeftHand  -0.25398 0.0180481 5.50724
RightShoulder  5.10275 9.24792 34.0676
RightArm  -11.703 -28.698 26.632
RightForeArm  33.3051 77.5995 96.0277
RightHand  1.46799 -16.178 -16.3131
LeftUpLeg  -18.3662 37.6248 -9.81473
LeftLeg  24.9712 8.485 4.63788
LeftFoot  -9.47101 -0.00557291 3.67747
LeftToes  1.06245e-005 4.65856e-005 -8.18503e-006
378
root  17.4392 38.6841 4.14535 -177.876 -25.9779 171.587
RightUpLeg  12.3344 -19.7625 -26.803
RightLeg  22.8429 -13.7471 -6.9225
RightFoot  -12.6349 -0.0750983 -0.556936
RightToes  0.000482159 0.542163 -0.142577
Spine  3.32082 1.86235 1.17477
Spine1  10.2745 4.70174 -8.69375
HEad  -5.36779 27.2122 -15.5319
LeftShoulder1  9.23991 -13.7902 -46.6138
LeftArm  -12.4472 15.7933 -21.1529
LeftForeArm  48.1677 -77.6973 -59.1997
LeftHand  -0.25398 0.0180481 5.50724
RightShoulder  5.22275 9.36454 34.6302
RightArm  -12.4996 -28.1704 26.0491
RightForeArm  31.3585 77.6142 94.5508
RightHand  1.40707 -15.4909 -16.6927
LeftUpLeg  -15.8251 33.2915 -10.5522
LeftLeg  27.2145 9.02172 5.34802
LeftFoot  -12.5448 0.11645 4.18291
LeftToes  1.06245e-005 4.65856e-005 -8.18503e-006
